<mxfile host="app.diagrams.net" agent="Mozilla/5.0 (Windows NT 10.0; Win64; x64) AppleWebKit/537.36 (KHTML, like Gecko) Chrome/140.0.0.0 Safari/537.36 Edg/140.0.0.0" version="28.2.4">
  <diagram name="PÃ¡gina-1" id="N1PgDPHu3wivD12hJMC6">
    <mxGraphModel dx="1418" dy="786" grid="1" gridSize="10" guides="1" tooltips="1" connect="1" arrows="1" fold="1" page="1" pageScale="1" pageWidth="827" pageHeight="1169" math="0" shadow="0">
      <root>
        <mxCell id="0" />
        <mxCell id="1" parent="0" />
        <mxCell id="009EOEcr3_C5sFKXclUW-18" style="edgeStyle=orthogonalEdgeStyle;rounded=0;orthogonalLoop=1;jettySize=auto;html=1;" edge="1" parent="1" source="009EOEcr3_C5sFKXclUW-17">
          <mxGeometry relative="1" as="geometry">
            <mxPoint x="414" y="200" as="targetPoint" />
          </mxGeometry>
        </mxCell>
        <mxCell id="009EOEcr3_C5sFKXclUW-17" value="INICIO" style="ellipse;whiteSpace=wrap;html=1;fillColor=#DAE8FC;strokeColor=#6c8ebf;gradientColor=#F2F2F2;shadow=1;" vertex="1" parent="1">
          <mxGeometry x="336" y="40" width="156" height="120" as="geometry" />
        </mxCell>
        <mxCell id="009EOEcr3_C5sFKXclUW-20" style="edgeStyle=orthogonalEdgeStyle;rounded=0;orthogonalLoop=1;jettySize=auto;html=1;" edge="1" parent="1" source="009EOEcr3_C5sFKXclUW-19">
          <mxGeometry relative="1" as="geometry">
            <mxPoint x="414" y="330" as="targetPoint" />
          </mxGeometry>
        </mxCell>
        <mxCell id="009EOEcr3_C5sFKXclUW-19" value="LER N1,N2,N3" style="shape=parallelogram;perimeter=parallelogramPerimeter;whiteSpace=wrap;html=1;fixedSize=1;fillColor=#fff2cc;strokeColor=#d6b656;gradientColor=#FCFCFC;shadow=1;" vertex="1" parent="1">
          <mxGeometry x="324" y="200" width="180" height="90" as="geometry" />
        </mxCell>
        <mxCell id="009EOEcr3_C5sFKXclUW-23" style="edgeStyle=orthogonalEdgeStyle;rounded=0;orthogonalLoop=1;jettySize=auto;html=1;" edge="1" parent="1" source="009EOEcr3_C5sFKXclUW-21">
          <mxGeometry relative="1" as="geometry">
            <mxPoint x="414" y="470" as="targetPoint" />
          </mxGeometry>
        </mxCell>
        <mxCell id="009EOEcr3_C5sFKXclUW-21" value="23,14,45" style="shape=parallelogram;perimeter=parallelogramPerimeter;whiteSpace=wrap;html=1;fixedSize=1;fillColor=#fff2cc;strokeColor=#FFDA66;gradientColor=#FFFFFF;shadow=1;" vertex="1" parent="1">
          <mxGeometry x="324" y="330" width="180" height="90" as="geometry" />
        </mxCell>
        <mxCell id="009EOEcr3_C5sFKXclUW-42" style="edgeStyle=orthogonalEdgeStyle;rounded=0;orthogonalLoop=1;jettySize=auto;html=1;entryX=0.5;entryY=0;entryDx=0;entryDy=0;" edge="1" parent="1" source="009EOEcr3_C5sFKXclUW-22" target="009EOEcr3_C5sFKXclUW-30">
          <mxGeometry relative="1" as="geometry" />
        </mxCell>
        <mxCell id="009EOEcr3_C5sFKXclUW-22" value="cont:23&lt;div&gt;&lt;div&gt;Total:14-1=&lt;/div&gt;&lt;div&gt;soma:45+&lt;/div&gt;&lt;/div&gt;" style="rounded=0;whiteSpace=wrap;html=1;fillColor=#f8cecc;strokeColor=#b85450;gradientColor=#FFFFFF;shadow=1;" vertex="1" parent="1">
          <mxGeometry x="321" y="470" width="186" height="100" as="geometry" />
        </mxCell>
        <mxCell id="009EOEcr3_C5sFKXclUW-30" value="N3&amp;gt;N1" style="rhombus;whiteSpace=wrap;html=1;fillColor=#e1d5e7;strokeColor=#9673a6;gradientColor=#FFFFFF;shadow=1;" vertex="1" parent="1">
          <mxGeometry x="318" y="640" width="191" height="200" as="geometry" />
        </mxCell>
        <mxCell id="009EOEcr3_C5sFKXclUW-35" value="ESCREVER&quot;" style="shape=parallelogram;perimeter=parallelogramPerimeter;whiteSpace=wrap;html=1;fixedSize=1;fillColor=#fff2cc;strokeColor=#FFDA66;gradientColor=#FFFFFF;shadow=1;" vertex="1" parent="1">
          <mxGeometry x="346" y="910" width="136" height="60" as="geometry" />
        </mxCell>
      </root>
    </mxGraphModel>
  </diagram>
</mxfile>
